<svg xmlns="http://www.w3.org/2000/svg" viewBox="0 0 341 341"><defs><style>.cls-1{fill:none;}.cls-2{fill:#101010;}.cls-3{fill:#353535;}.cls-4{fill:#dbdbdb;}.cls-5{fill:#fdfdfd;}.cls-6{fill:#1e1e1e;}.cls-7{fill:#fefefe;}.cls-8{fill:#676767;}.cls-9{fill:#484848;}.cls-10{fill:#343434;}.cls-11{fill:#6f6f6f;}.cls-12{fill:#616161;}.cls-13{fill:#b0b0b0;}.cls-14{fill:#8f8f8f;}.cls-15{fill:#4f4f4f;}.cls-16{fill:#afafaf;}.cls-17{fill:#464646;}.cls-18{fill:#5d5d5d;}.cls-19{fill:#1f1f1f;}.cls-20{fill:#4c4c4c;}.cls-21{fill:#919191;}.cls-22{fill:#d8d8d8;}.cls-23{fill:#5b5b5b;}.cls-24{fill:#888;}.cls-25{fill:#474747;}.cls-26{fill:#d9d9d9;}.cls-27{fill:#b4b4b4;}.cls-28{fill:#adadad;}.cls-29{fill:#d0d0d0;}.cls-30{fill:#656565;}.cls-31{fill:#c8c8c8;}.cls-32{fill:#fcfcfc;}.cls-33{fill:#ececec;}.cls-34{fill:#8d8d8d;}.cls-35{fill:#111;}.cls-36{fill:#131313;}.cls-37{fill:#171717;}.cls-38{fill:#b8b8b8;}.cls-39{fill:#6b6b6b;}.cls-40{fill:#e5e5e5;}.cls-41{fill:#f4f4f4;}</style></defs><g id="Camada_2" data-name="Camada 2"><g id="icon_grayscale" data-name="icon grayscale"><rect id="bg_gs" class="cls-1" width="341" height="341"/><path class="cls-2" d="M249.7,118.44c-4.16,3.94-9.37,7.58-11.6,12s-1.72,10.55-3.72,15.68c-3,7.7-3,7.67,3.58,12.91a148.71,148.71,0,0,1,35.12,39.26c1.7,2.81,3.54,3.83,6.77,3.73,5.3-.17,10.65-.49,15.92.72,8.76,2,12.86,8.12,11.29,16.95a32.57,32.57,0,0,1-3.58,10.32c-10.12,18.17-20.28,36.31-30.25,54.56-4.45,8.14-11.16,12.09-20.28,12.09q-82.44,0-164.9,0c-8.9,0-15.58-3.83-20-11.77-10.08-18.38-20.3-36.69-30.46-55-.4-.73-.82-1.45-1.17-2.21-7.1-15.17-.69-26.09,16-25.48,9.45.34,15.31-2,20.32-10.57,7.51-12.85,18.5-23.08,30.2-32.32,2.24-1.76,3-3.33,2.42-6.27-1.22-5.68-3.34-11.73-2.43-17.17,1.7-10.15-1.36-20.1.18-30.08.41-2.62.48-5.31,3.15-7,1.45-.9,1.24-2.59,1.42-4.07a62.69,62.69,0,0,1,124.15-2.15c.46,2.9.85,5.58,3.34,8,2.67,2.55,1.88,6.7,1.71,10-.24,4.55,1.89,5.72,5.69,6.06C244.86,116.89,247.26,116.74,249.7,118.44Z"/><path class="cls-3" d="M74.72,286.74C65.1,271.63,57.29,255.5,48.35,240c-2.07-3.58-3.85-7.34-6-10.86A23.14,23.14,0,0,1,39,213.44c3.89-3.45,8.57-4.13,13.57-4.13q44.7,0,89.41,0,72.44,0,144.86-.05c5.38,0,10.45.57,15.06,3.49,1.66,4.73.76,9.3-1.53,13.46-11.15,20.21-22.46,40.34-33.72,60.5-3.54,2-7.44,2.46-11.4,2.46q-84.54.1-169.08,0C82.17,289.19,78.27,288.73,74.72,286.74Z"/><path class="cls-4" d="M218.7,150.9a75.52,75.52,0,0,1-16.39,29.32c-17.37,18.88-45.47,19.37-63.47,1.12C130.65,173,125.16,163,121.57,152c1.69-1.21,1.73-1.26,3-.24,10.71,8.78,22.07,6.71,33.53,1.94,1.28-.54,2.28-2.12,3.85-1.29,2.12,1.13-.06,2.59.07,3.91a4,4,0,0,0,.37,1.42c5,5.44,8.62,5.31,13.2.56,2-2.45.11-3.75-1.55-5.11,1.46,1.28,3.36,2.41,1.75,4.82-5.88,5.28-8.63,5.12-13.63-.81a85.76,85.76,0,0,0,4.76-19.8c.22-1.64.84-3.86,3.19-3.89s2.55,2.31,3.06,3.93c5.41,17.24,8.87,19.57,27.18,19.87a21.3,21.3,0,0,0,15.95-6.12c.65-.61,1.06-1.82,2.35-1.15.08,0,.11.25.11.39A4,4,0,0,1,218.7,150.9Z"/><path class="cls-5" d="M301.86,212.77c-81.35-2.26-162.72-.36-244.08-1-6.34,0-12.65-.06-18.82,1.68,1.65-4.19,5.15-5.94,9.24-6.55a54.14,54.14,0,0,1,8-.32l231,0C293,206.55,298.59,206.83,301.86,212.77Z"/><path class="cls-6" d="M74.72,286.74H266.61c-3.53,4.82-8.83,5.92-14.17,5.93q-82.29.18-164.57,0C82.76,292.67,78,291.1,74.72,286.74Z"/><path class="cls-7" d="M203,122c4.87,0,8.69,0,12.51,0,3.3,0,4.88,1.7,4.65,5-.4,5.68-1.49,11.2-4.35,16.22-4.84,8.5-14.61,11.37-26.42,7.79-7.32-2.21-12.71-10.66-12.2-19.12.19-3,1.43-4.95,4.53-6.34A41,41,0,0,1,203,122Z"/><path class="cls-8" d="M223.74,94.65l-5.09.23c-.62,1-1.48,2-2.68,1.86-7.51-1.09-15.39-.52-22.21-4.81-6.78-16.35-20.59-21.58-37-14a11.29,11.29,0,0,1-9.06.11c-5.91-2.29-12.54-3.17-16.93-8.5-1.44-3.31.87-5.47,2.66-7.49,3-3.34,5-8.1,10.56-8.11,6.74,3.61,14.13,5.58,21.26,8.2Q189.44,71,213.76,79.75a29.8,29.8,0,0,1,10.66,6C225.25,88.8,227,91.92,223.74,94.65Z"/><path class="cls-9" d="M147.7,87.89c-1.14,3.3-2.33,6.57-2.15,10.16.15,2.91-1.63,4.15-4.23,4.55-11.32,1.75-21.95,5.27-31.33,12-2.09,1.51-3.11,1.28-3.38-1.6-.85-8.91.4-11.39,8.44-15.33,2.21-1.08,4.51-2,7.53-3.29-2.94-.69-4.93.22-6.87.68-3.4.81-4.4-.74-3.79-3.67,1.7-8.19,4.3-16,9.73-22.62,4,.62,6.69,3,8.38,6.6.44,2.7-.85,5.14-1.18,7.73-.43,3.29,1,4.69,4.18,4.27s6.15-1.1,9.25-1.46C144.36,85.71,146.65,85.13,147.7,87.89Z"/><path class="cls-7" d="M146.54,133.85c5.1,0,9-1,12.81-1.9,2.68-.6,3.59.18,3.27,3-1,9.09-6.23,15.12-14.61,16.7-12,2.26-19.94-.83-24.44-9.49a37.59,37.59,0,0,1-3.66-12.87c-.5-4,2.51-6,5.58-7.23,2.34-1,2.49.89,2.34,2.85-.4,5.1-.88,10.23,1,16.07a126.87,126.87,0,0,1,18.41-16.52c3.45-2.48,6.53-2.65,10.43-.19Z"/><path class="cls-3" d="M238.64,176.82a141.24,141.24,0,0,1,14,24c-.07,2.31-1.88,1.44-2.95,1.44q-18.47.11-36.94,0c-1.18,0-2.86.7-3.33-1.18-.38-1.5.65-2.58,1.71-3.37,5.6-4.12,8.59-9.95,11.16-16.2C225.81,173,231.27,171.57,238.64,176.82Z"/><path class="cls-10" d="M114.7,115.86c8.92-5.89,18.84-8.89,29.36-10,18.19-1.87,36.39-1.37,54.59,0,2.85.93,3.37,2.49,1.08,4.57-4,3.68-9,5.67-14,7.47-2.18.79-3.44-.35-3.51-2.82a23.77,23.77,0,0,1-4.67,3.77c-2.19,1.18-4.56,3.08-6.71.56-2-2.32,1.06-3.73,1.79-5.57a5.4,5.4,0,0,0,.43-.87c.48-1.46,2.37-2.9,1.14-4.36s-3,.14-4.55.24c-9.82,3.79-20.24,6.19-28.74,12.94-1.65,1.3-3.53,3-5.77,1.14-2-1.69-.71-3.84-.18-5.67.58-2,1.84-3.81,2.56-5.8s0-2.47-1.85-1.6h0a54.69,54.69,0,0,0-15.13,9.43c-1.41,1.21-2.52,3.81-4.57,2.66S113.83,118.19,114.7,115.86Z"/><path class="cls-6" d="M98.7,182.82c2.38-5.57,6.17-10.19,9.92-14.84,1.2-1.5,2.18-1.56,3.68-.25,5.27,4.6,10.82,8.37,13,16.1,2,6.87,8.48,11.23,14.87,14.76,1.7.94,3.76,1.35,5,3.15-1.06,1.67-2.72,1-4.07,1-16,0-31.9.08-47.85,0-1.62,0-4.23,1.3-4.68-1.94,2.76-1.33,5.71-1.47,8.71-1.46,7.94,0,15.89,0,24.19-.64-3.85-4.68-7.25-9.48-12-13.07-1.77-1.35-4.07-1.37-6.27-1.07C101.45,184.8,99.6,185.1,98.7,182.82Z"/><path class="cls-6" d="M238.64,176.82c-10.42-1.67-11.28-1.19-15.25,8.6-2.9,7.15-3.17,7.5-12,15.46.49,1.31,1.66.88,2.55.89,11.31,0,22.62,0,33.94,0a9,9,0,0,0,4.82-1c.18,2.15-1.48,1.93-2.7,1.93q-26.43,0-52.84-.12c-.27,0-.54-.31-1.15-.69,1.36-2.12,3.79-2.48,5.65-3.62,9.32-5.7,16.65-12.79,17-24.64a22.23,22.23,0,0,0-1-6.35c-.83-3-.19-5.31,2.67-6.67s5.1-1.56,7.39,1.42C231.42,166.93,235.82,171.28,238.64,176.82Z"/><path class="cls-11" d="M175.77,43.81A52.74,52.74,0,0,1,203.66,53.9c2.83,3.75,6.94,6.28,9.64,10.22,1.27,1.85,2,3.2.31,5-1.93,1.38-3.88.58-5.73-.08-15.17-5.49-30.41-10.8-45.49-16.52-3-1.13-5-2.73-3.58-6.35A27.35,27.35,0,0,1,175.77,43.81Z"/><path class="cls-3" d="M98.7,182.82c7.73-2.27,13.72-.55,18.4,6.57,2.86,4.35,7.1,7.8,10.81,11.75.11-.18,0,.3-.22.3-13,.18-26.07,1.41-39.06-.65A78.92,78.92,0,0,1,98.7,182.82Z"/><path class="cls-12" d="M147.7,87.89a93.39,93.39,0,0,0-17.59,2.93c-3.44.84-4.79-.45-4.35-3.7.5-3.76,1.29-7.48,1.95-11.21,1.34-2.34-1.32-7,4-7a108.71,108.71,0,0,0,25,9A37.67,37.67,0,0,0,147.7,87.89Z"/><path class="cls-13" d="M218.7,150.9c-7,6.87-15.42,8.82-25,8-10.9-.93-17.75-6.5-20.68-17.54-.59-2.23-.29-6.28-3-6-3,.32-2.44,4.3-2.27,6.8.37,5.6-.94,10.47-5,14.46-.05.93-.12,1.85-1.2,2.24-1.69-1.63.52-3.42-.34-5.7-6.26,4.52-13.2,5.95-20.69,5.79-6.25-.14-11.79-1.54-16.29-6.08-.72-.72-1.49-1.36-2.63-.91a34,34,0,0,1-3.27-9c.86.51,1.25.6,1.36.83,7,15,24.2,14,35.18,9.91a14.55,14.55,0,0,0,8.92-9.51c.82-2.52,1.31-5.14,2.13-7.66.65-2,1.16-4.47,3.92-4.52s3.46,2.1,4,4.3,1.19,4.49,1.84,6.72a16.33,16.33,0,0,0,4.91,8c10.67,9.21,31.38,6.17,38.71-5.67.52-.84,1-1.68,2.09-3.44A20.16,20.16,0,0,1,218.7,150.9Z"/><path class="cls-14" d="M193.76,91.93c8.45-.32,16.57,2.17,24.89,2.95,2.38,1.08,4.81,2.06,7.14,3.25,6.61,3.38,8.25,6.53,7.81,13.9-.2,3.27-1.51,3.75-4.07,2.17-1.69-1-3.32-2.17-5-3.26-5.55-8.73-15-8.79-23.65-10.51-2.26-.45-4.7-.33-6-2.73Z"/><path class="cls-6" d="M172.65,113.86c0,1.44-1.38,2.68-.42,4.75,5.34-2,9.91-5.39,15.11-8.27-.21,2.79-3.16,3.29-3.44,6a55.09,55.09,0,0,0,14.81-7.91c1.12-.83.65-1.7-.06-2.53,3.33.71,9,.52,9.24,3,.36,3.08-5,3.79-8,5.28a140.31,140.31,0,0,1-40.2,13.42Z"/><path class="cls-15" d="M131.71,68.89l-4,7c-.59-3.58-5.5-3.47-6.06-7.09,10.22-17,37-29.41,54.12-25-5.56,0-11,.71-16.13,3-1.63,2.61-4.14,3.95-6.95,4.87-2.93,1.27-5,4.86-9,3.22A43.39,43.39,0,0,0,131.71,68.89Z"/><path class="cls-16" d="M200.69,193.84c-12,7.93-25.39,8.94-39.15,7.43-4.06-.45-8.25-.92-11.89-3.17-1.27-2.15-5.54-2.41-4-6.34,12.3,6.28,25,8.13,38.48,4.18,6.18-1.82,11.34-5.37,16.53-8.94C204.3,189.29,200.83,191.56,200.69,193.84Z"/><path class="cls-17" d="M190.63,96.84c.24,3.08-1.42,4-4.24,4-11.09,0-22.19,0-33.28,0-2.09,0-4.2-.15-4.14-3,.06-2.49.81-4.68,3.83-4.85,2.31-.12,4.64-.05,6.95-.06,3.57,2.63,7.72,1.45,11.55,1.44,5.1,0,10.16.71,15.25.49A5,5,0,0,1,190.63,96.84Z"/><path class="cls-18" d="M92.84,183c-2.82,5.23-5.62,10.47-8.49,15.68-1.53,2.79-8.33,4.57-10.94,2.94-1.76-1.11-.65-2.32,0-3.35a111.86,111.86,0,0,1,15.22-19.46C92.7,178.22,93.26,178.78,92.84,183Z"/><path class="cls-19" d="M135.69,109.88c2.9-1.2,2.74.6,2.27,2.42-.75,3-2,5.9-2,10.06,4.85-3.48,8.9-6.49,13.11-9.29.64-.43,2.81-4,3,.65.05,1.11,1.66,0,2.47-.24,5-1.72,9.7-4.41,15.16-4.61-10.53,4.54-20.83,9.51-29.76,16.86-1.92,1.57-3.71,3.3-5.58,4.94-.73.64-1.44,1.55-2.56,1.07s-1.05-1.63-1-2.6A33.18,33.18,0,0,1,135.21,114C135.9,112.8,138,111.53,135.69,109.88Z"/><path class="cls-20" d="M194.86,97.7c6.81,0,13.41,1.38,20,2.93,5.66,1.32,9.82,3.7,9.67,10.31-8.32-3.9-16.86-7.08-26-8.41C195.82,102.13,194.35,100.62,194.86,97.7Z"/><path class="cls-6" d="M162.69,88.87a27.62,27.62,0,0,1-7.89,1c-3.28,0-3.23-1.32-1.71-3.63,5.58-8.45,18.62-11,27.56-5.36-1.06,2.9-3.88,2.66-6.11,3.25C170.38,85.25,166.22,86.24,162.69,88.87Z"/><path class="cls-21" d="M213.73,67.87c-1.61-3.85-4.51-6.72-7.29-9.7-1.15-1.24-3.12-2-2.78-4.27,13.09,9.05,20.91,21.51,24.29,37,1,4.37.11,5.76-4.21,3.77-.39-2.93-.79-5.86-1.18-8.79-2.33-2.78-5-5.31-5.91-9C217,73.43,212.19,71.67,213.73,67.87Z"/><path class="cls-10" d="M162.69,88.87c1.86-5.59,6.83-6.22,11.56-7.15,2.11-.42,4.27-.55,6.4-.82,2.78,2.23,5.8,4.26,7,8Z"/><path class="cls-12" d="M245.7,171.77a92.59,92.59,0,0,1,15.06,17c-1.25,4.6-2.06,5.06-6.93,4q-6.14-9.93-12.26-19.86C242.29,170,244.05,171.12,245.7,171.77Z"/><path class="cls-22" d="M145.7,191.76c1.39,2.07,3.23,3.85,4,6.34-10.12-3.35-18.34-8.83-21.77-19.76C135.33,180.78,139,188.28,145.7,191.76Z"/><path class="cls-23" d="M253.83,192.72l6.93-4c3,2.92,5.11,6.45,7.35,9.9,1.27,2,.67,2.87-1.67,3.22C259.25,203,257.91,202,253.83,192.72Z"/><path class="cls-22" d="M200.69,193.84c-1.51-2.28.2-4.56,0-6.84,5-4.44,9.07-9.8,13.06-15.81C215.5,179.88,210.56,188.05,200.69,193.84Z"/><path class="cls-24" d="M190.63,96.84c-8.95-.36-17.89-.7-26.83-1.08-1.91-.08-3.71-.42-4.05-2.81,8.79-.6,17.58-.18,26.36,0C188.69,93,190.8,93.59,190.63,96.84Z"/><path class="cls-9" d="M92.84,183a5.31,5.31,0,0,0-4.19-4.19c5.5-6.41,11.51-12.27,19.16-16.62Z"/><path class="cls-25" d="M125.93,172.48c-8.31-2.91-13.34-8.11-15.93-16.5C117.06,160,124.58,162.76,125.93,172.48Z"/><path class="cls-19" d="M114.7,115.86c.25,1.61,0,3.74,1.55,4.46,1.86.85,2.6-1.48,3.86-2.37,4.83-3.4,9.53-7,15.58-8.08a81.45,81.45,0,0,0-22.32,19.47C112.12,124,113.1,119.92,114.7,115.86Z"/><path class="cls-26" d="M233.5,135.82q-1,3.51-1.93,7c-1.18,1.95-2.11,4-3.71,5.71-1.23,1.28-2.42,2.87-4.5,1.31q1.72-7,3.43-14C229,132.62,231.26,132.65,233.5,135.82Z"/><path class="cls-27" d="M218,117.61H202.88l-.35-.87c3.54-1.85,6.9-4.53,10.67-5.33C217.35,110.52,216.24,115.22,218,117.61Z"/><path class="cls-28" d="M115.79,147.71a30.33,30.33,0,0,1,3.32,10c-7.26-4.45-9.91-10.28-11.27-17,.28-.68,0-1.63.93-2,1.24,1.43.19,3.72,1.87,5C113.38,143.74,113.49,147.15,115.79,147.71Z"/><path class="cls-28" d="M223.36,149.86c3.46-1.49,5.73-4.38,8.21-7-1.67,5.8-3.95,11.14-10.33,14.44C221,154,222.24,152,223.36,149.86Z"/><path class="cls-17" d="M245.7,171.77a7.24,7.24,0,0,0-4.13,1.09l-8.35-10.29.87-1C238.19,164.68,242.5,167.5,245.7,171.77Z"/><path class="cls-29" d="M115.79,147.71c-3.68,1.23-4.13-1.74-5.15-4,.67-1.85,1.34-3.7,2.54-7Z"/><path class="cls-30" d="M224.6,126.9c-.64-1.71-1.49-3.41-.17-5.19,2-.37,3.78-2.26,6-.89.1,1.32.21,2.64.31,4C229.94,129.05,227.23,127.85,224.6,126.9Z"/><path class="cls-16" d="M166.63,114.55c-2.3,2.72-3.54,7.54-9.73,4C160.28,116.48,163.22,115.05,166.63,114.55Z"/><path class="cls-31" d="M238.88,117.87c-1.6,3.29,2.48,4.88-.36,7-1.48,1.12-3.09.06-3.68-1.26C233.61,120.9,235.94,120.07,238.88,117.87Z"/><path class="cls-32" d="M233.5,135.82a10.55,10.55,0,0,0-6.71,0c-.83-4.12,2.15-4.1,4.74-4.13C234.83,131.65,233.89,133.93,233.5,135.82Z"/><path class="cls-25" d="M224.6,126.9a8.59,8.59,0,0,0,6.18-2.12c.84.74,2.52,1,2.43,2.21-.11,1.46-1.83,1.07-2.84,1.38C228.21,129,226.1,129.05,224.6,126.9Z"/><path class="cls-33" d="M108.77,138.76l-.93,2c-.33-.56-1-1.15-.93-1.67.26-2.37-2.35-4.57-.42-7,.23-.29,1.14-.46,1.31-.27C109.77,133.9,108.27,136.47,108.77,138.76Z"/><path class="cls-6" d="M220.62,113.52c2.21.31,3.86.71,4.2,2.7a1.36,1.36,0,0,1-1.54,1.56C221.32,117.39,221,115.71,220.62,113.52Z"/><path class="cls-34" d="M230.47,120.82c-1.93.88-3.87,1.66-6,.89,1.24-1.77,2.66-3.18,5.1-2.83C230.9,119.07,231.05,119.75,230.47,120.82Z"/><path class="cls-35" d="M170.29,268.8a16.86,16.86,0,0,1-11-3.07c-5.65-4.19-7.68-10.37-5.38-16.14,2.56-6.44,10.71-11.27,17.7-10.49,9.12,1,15.45,6.17,16,13C188.46,262.23,181.76,268.8,170.29,268.8Z"/><path class="cls-36" d="M195.62,162.92c-3.82,12.11-11,18.9-22.13,20.73-11.46,1.89-19.65-3.74-26.54-13.72C163.78,170.88,179.67,170.44,195.62,162.92Z"/><path class="cls-37" d="M161.52,158.88c.09-.91.11-1.86,1.2-2.24,4.31,4.13,8.61,4,12.9,0,1.68,0,1.65,1,1.21,2.22C171.12,165.73,167.23,165.74,161.52,158.88Z"/><path class="cls-38" d="M176.83,158.83c-.09-.91-.1-1.86-1.21-2.22-1.16-2.56-4.62-3.76-4.41-8.77C173.61,152.29,178.49,153.65,176.83,158.83Z"/><path class="cls-39" d="M218.59,75.89a32.52,32.52,0,0,1,4,10l-74-27.16c-2-.75-4.25-1.2-4.84-3.77a32.63,32.63,0,0,1,8-5c19.37,7.41,39,14.14,58.45,21.27A23.58,23.58,0,0,1,218.59,75.89Z"/><path class="cls-39" d="M218.59,75.89c-8.28-.65-15.65-4.5-23.25-7.2-11.72-4.16-23.47-8.34-35.08-12.84-3.25-1.26-7.4-1.54-8.58-5.94,2.57-1.24,5-2.86,8-3.06A4.39,4.39,0,0,0,162.55,50q24.6,8.81,49.21,17.61a9.74,9.74,0,0,0,2,.27A15.84,15.84,0,0,1,218.59,75.89Z"/><path class="cls-5" d="M168.69,243.93a6.81,6.81,0,0,1,1-.17c7.87-.17,13.83,4.19,14,10.2.16,6.2-5.89,10.8-14,10.63C162.4,260.14,161.9,249.44,168.69,243.93Z"/><path class="cls-40" d="M168.69,243.93c-2.82,7-3.26,14,1,20.66-7.26-.34-12.2-4.56-12.2-10.4C157.46,248.59,161.93,244.52,168.69,243.93Z"/><path class="cls-41" d="M165.7,174c7.24-.79,14.49-1.57,22.68-4.09-3,5-7.6,3.82-11,5.5,1.66,1.49,2.72,2.81-.48,3.66-3.72,1-7.38,2-11.22.67a7.51,7.51,0,0,1-1.65-1C161.38,175.8,161.67,175,165.7,174Z"/><path class="cls-38" d="M165.7,174c-4.54,1.9.61,3.83,0,5.74-4.35.38-6.43-3.6-10.15-4.43l.31-1.31Z"/></g></g></svg>