<svg xmlns="http://www.w3.org/2000/svg" viewBox="0 0 341 341"><defs><style>.cls-1{fill:none;}.cls-2{fill:#01052d;}.cls-3{fill:#27363c;}.cls-4{fill:#f6e3bb;}.cls-5{fill:#fdfdfd;}.cls-6{fill:#112024;}.cls-7{fill:#fefefe;}.cls-8{fill:#e32b7b;}.cls-9{fill:#c5b49c;}.cls-10{fill:#a00875;}.cls-11{fill:#a10b74;}.cls-12{fill:#ef6497;}.cls-13{fill:#c5b39c;}.cls-14{fill:#e73e71;}.cls-15{fill:#9e0874;}.cls-16{fill:#112025;}.cls-17{fill:#e2287c;}.cls-18{fill:#a3146f;}.cls-19{fill:#27353c;}.cls-20{fill:#e1257e;}.cls-21{fill:#f2e0b9;}.cls-22{fill:#a31270;}.cls-23{fill:#f2dfb9;}.cls-24{fill:#e0227f;}.cls-25{fill:#df1e81;}.cls-26{fill:#ed6991;}.cls-27{fill:#de1a83;}.cls-28{fill:#9e0b73;}.cls-29{fill:#e8579a;}.cls-30{fill:#a00c73;}.cls-31{fill:#d80d89;}.cls-32{fill:#e0257e;}.cls-33{fill:#d90c8a;}.cls-34{fill:#122026;}.cls-35{fill:#f1dfb9;}.cls-36{fill:#a5166e;}.cls-37{fill:#cdbb96;}.cls-38{fill:#db1982;}.cls-39{fill:#a61f6a;}.cls-40{fill:#a51a6c;}.cls-41{fill:#d91485;}.cls-42{fill:#a62367;}.cls-43{fill:#d91286;}.cls-44{fill:#c2b19a;}.cls-45{fill:#da2b7a;}.cls-46{fill:#ec6c8d;}.cls-47{fill:#d91982;}.cls-48{fill:#d9247a;}.cls-49{fill:#9c0d70;}.cls-50{fill:#e9d7b3;}.cls-51{fill:#d81e7e;}.cls-52{fill:#c6b593;}.cls-53{fill:#fbf9f5;}.cls-54{fill:#d9c5ac;}.cls-55{fill:#101e28;}.cls-56{fill:#ed5f96;}.cls-57{fill:#d81d7f;}.cls-58{fill:#eeece9;}.cls-59{fill:#847b78;}.cls-60{fill:#56174d;}.cls-61{fill:#3d0647;}.cls-62{fill:#f16586;}.cls-63{fill:#fdfcfb;}.cls-64{fill:#756c6f;}.cls-65{fill:#2e2e47;}.cls-66{fill:#02062d;}.cls-67{fill:#04082f;}.cls-68{fill:#090d32;}.cls-69{fill:#c3b29b;}.cls-70{fill:#dccaaa;}.cls-71{fill:#18272b;}.cls-72{fill:#1c2b30;}.cls-73{fill:#e42f79;}.cls-74{fill:#dd1785;}.cls-75{fill:#dc1386;}.cls-76{fill:#e73974;}.cls-77{fill:#1d0a39;}.cls-78{fill:#160736;}.cls-79{fill:#2a063f;}.cls-80{fill:#e63576;}.cls-81{fill:#e53277;}.cls-82{fill:#e4e4e5;}.cls-83{fill:#f5f5f6;}.cls-84{fill:#c7c7c9;}.cls-85{fill:#77788e;}</style></defs><g id="Camada_2" data-name="Camada 2"><g id="icon_colors" data-name="icon colors"><rect id="bg_cor" class="cls-1" width="341" height="341"/><path class="cls-2" d="M251.05,120.2c-4.76,4.53-8.91,7.72-12.07,11.71s-1.53,9.48-3.52,14.05c-1.46,3.37-5,7.1-3.7,10.13s5.69,4.81,8.64,7.24a147.33,147.33,0,0,1,33,37.78c1.54,2.55,3.21,3.24,6,3.21,5.48,0,11-.51,16.42.74,8.73,2,12.86,8.15,11.28,16.94a34.21,34.21,0,0,1-3.81,10.74c-10,17.84-20,35.66-29.69,53.62C268.9,295,261.89,299,252.15,299q-81.45-.07-162.89,0c-9.94,0-17-4-21.77-12.94-9.5-17.71-19.44-35.19-29.2-52.76-.4-.72-.85-1.43-1.23-2.16-8.21-15.76-1.57-27.46,16-26.67,9.2.4,14.59-2.14,19.4-10.23,7.6-12.8,18.42-23.15,30.14-32.36,2.54-2,3.47-3.67,2.67-7C104,149.24,102,143.14,103,137.71c1.7-9.5-1.07-18.73,0-28,.38-3.2.11-6.74,3.59-8.79,1.31-.78,1-2.36,1.13-3.66A62.68,62.68,0,0,1,231.9,95c.46,2.89,1,5.49,3.39,7.88,2.7,2.69,1.79,7,1.68,10.54-.13,4,1.66,5.08,5,5.39C244.46,119.07,246.9,119.57,251.05,120.2Z"/><path class="cls-3" d="M301.9,215.06c2.53,7.07-1,12.86-4.14,18.6-9.58,17.39-19.29,34.7-29,52-.64,1.15-1.44,2.22-2.16,3.32-2.55,1.46-5.34,1.67-8.2,1.67h-176c-2.69,0-5.33-.09-7.67-1.65-7.84-11.94-14-24.82-21.08-37.2-4-6.91-7.52-14-11.58-20.88A22.43,22.43,0,0,1,39,215.74c3.73-3.11,8.23-3.26,12.75-3.26q30,0,59.9,0,88.11,0,176.22,0C292.73,212.45,297.52,212.59,301.9,215.06Z"/><path class="cls-4" d="M217.66,154.13a3.23,3.23,0,0,1-.11,2.89c-3.9,9.79-8.78,19-16.25,26.59-17.39,17.67-44.56,17.87-62.09.37-8.38-8.37-14-18.49-17.61-29.7,1.71-1.13,1.8-1.23,2.61-.52,10.15,8.91,21.25,7.28,32.53,2.88,4.52-1.77,5-1.6,5.58,3.45,5.23,6.11,8,6.24,13.37.6,1.5-1.77.81-3.22-.7-4.48a9.12,9.12,0,0,1-2.68-3.2c-.4-.46.49-.56-.1-.28s.29.45.23.78c.76,2.3,4.84,2.74,3.41,6.21-5.66,4.87-8.87,4.7-13.61-.69a3.7,3.7,0,0,1,1.13-3.18c2.52-2.59,3-5.82,3-9.23a34.58,34.58,0,0,1,.35-5.47c.32-2.2.76-4.75,3.24-5,2.89-.29,2.95,2.76,3.53,4.65.53,1.71.8,3.57,1.31,5.3,1.53,5.22,4.73,9.47,9.79,11.28,10.37,3.7,20.77,4.5,30.38-2.48C215.77,154.3,216.55,153.69,217.66,154.13Z"/><path class="cls-5" d="M301.9,215.06c-81.37-2.29-162.75-.35-244.13-1C51.45,214,45.15,214,39,215.74c2-4.46,5.65-6.34,10.23-6.7,2.82-.22,5.65-.19,8.48-.19l230,0C293.37,208.82,298.79,209.31,301.9,215.06Z"/><path class="cls-6" d="M74.76,289l191.87,0c-3.64,4.49-8.66,6-14.1,6q-81.85.09-163.7,0C83.5,295,78.23,293.89,74.76,289Z"/><path class="cls-7" d="M204.59,124.23c3.67,0,7.33,0,11,0,3.33,0,4.84,1.78,4.59,5-.46,5.85-1.62,11.53-4.62,16.67-5,8.57-14.28,10.39-26.72,7.13-7-1.83-12.25-10.88-11.68-19,.21-3,1.24-5.32,4.64-6.22s6.47-2.94,9.83-3.43C195.87,123.77,200.26,124.24,204.59,124.23Z"/><path class="cls-7" d="M128.74,143.43a106.1,106.1,0,0,1,18.66-16.71c4.29-2.91,4.63-2.94,10.35-.13L146.62,136c4.78.35,8.66-.91,12.55-1.78,2.66-.59,3.94-.36,3.51,2.92-1.22,9.44-6.42,15.42-15,16.85-12.52,2.07-20.44-1.36-24.7-10.77a49.29,49.29,0,0,1-3-11c-.86-4.41,2.29-6.31,5.35-7.89,1.62-.84,3-.31,2.63,2.38A40.82,40.82,0,0,0,128.74,143.43Z"/><path class="cls-3" d="M238.66,179.11A140.69,140.69,0,0,1,251.19,200c1.71,3.34,1.15,4.25-2.6,4.21-13-.15-25.94-.07-38.92-.08-.37-1.44.67-2.2,1.6-2.79,6.2-4,9.5-9.91,12-16.58C226.29,177,231.15,175.32,238.66,179.11Z"/><path class="cls-3" d="M114.73,118.15c9-6,19.06-8.74,29.68-10.06,14-1.75,28.12-.79,42.17-.86a47.51,47.51,0,0,1,14.13,1.91c.23,2.38-1.88,2.92-3.25,3.93a62.11,62.11,0,0,1-11.41,6.15c-1,.47-2.36,1-3.19-.17s.29-2.11,1-3a2.83,2.83,0,0,1,1.16-.82c-.73-.14-.89.63-1.39.88-2,1.74-4.55,2.66-6.78,4-1.77,1.1-4,2.91-5.77,1.07s.85-3.42,1.59-5.1l2.55-5.21c-2.09-1.74-3.75.35-5.53.23-5.46,1.22-10.42,3.72-15.49,5.93-1,.44-2.34,1.2-3.18.08-1.16-1.56.59-2.2,1.36-3.07a1.49,1.49,0,0,1,.73-.37c-.5-.43-.49.39-.86.36-3.86,3.23-8,6-12,9.07-1.3,1-2.81,3.1-4.7,1.61-1.65-1.31-.51-3.4-.3-5.18.31-2.64,2.7-4.59,2.39-7.41h-2c-5.8,2.14-10.68,5.77-15.52,9.48-1.35,1-2.52,3.51-4.38,2.26S113.75,120.34,114.73,118.15Z"/><path class="cls-3" d="M129.75,204.11H87.86c3.37-7.08,6.56-13.35,10.86-19,5.8-3.53,11.44-3.2,15.66,1.55,4.5,5.07,9,10.13,14.22,14.44A2.62,2.62,0,0,1,129.75,204.11Z"/><path class="cls-6" d="M129.75,204.11a224.54,224.54,0,0,1-17.38-17.66c-3.79-4.33-9-1.9-13.65-1.35,2.28-6,7-10.34,10.37-15.55,1-1.58,2-1.25,3,.21,1.85,2.63,4.47,4.31,7.28,5.83,1.34.73,3,1.44,3.32,3.41,1.84,11.29,9.75,17.51,19,22.59,1.16.64,2.37,1.2,3.52,1.84.27.15.44.48,1.57,1.76C140.49,204.71,135.11,206,129.75,204.11Z"/><path class="cls-6" d="M238.66,179.11c-1.29-.16-2.61-.23-3.89-.49-4.86-1-8.39.53-9.77,5.13-2.63,8.75-7.53,15.58-15.33,20.34-4.62,1.91-9.35.68-14.45-.12,2.09-1.09,4.25-2.08,6.27-3.29,9.8-5.91,17.36-13.31,17.22-25.88a14.2,14.2,0,0,0-1.09-5.32c-1.13-2.77-.44-4.89,2.06-6.32s5-1.69,7.24.67C231.41,168.48,235.62,173.34,238.66,179.11Z"/><path class="cls-8" d="M183.43,80.26a36.44,36.44,0,0,0-11.84-3.64c-7.43-3.85-15.55-6-23.29-9a59.29,59.29,0,0,1-6.45-2.5c-1.83-1-3.36-2.2-2.71-4.66.73-1.58,1.81-2.66,3.69-2.61,24.1,9.67,48.66,18.1,73.08,26.89,2.49.89,5.2,1.3,7.2,3.28,1.08,1.92,2,3.87.84,6.1-.95.65-1.9.27-2.82-.07C208.55,89.47,195.9,85.12,183.43,80.26Z"/><path class="cls-9" d="M161.55,161.16c-1.92-1.32-.07-3-.17-5.35a38.21,38.21,0,0,1-20.95,5.47c-6.43-.17-12-1.66-16.52-6.41-.58-.62-1.17-1.85-2.31-.59a20.67,20.67,0,0,1-2.69-7.35c.9.36,1.55.41,1.7.71,6.38,12.85,23.16,12.34,33.53,8.61a15.12,15.12,0,0,0,9.85-10.4c.7-2.37,1.13-4.82,1.92-7.15.67-2,1.1-4.47,3.92-4.5s3.56,2,4,4.27c0,.16.12.31.14.48,3.1,19.55,16.81,20.48,31.67,19,6.46-.66,10.82-5.33,14.11-10.78a.81.81,0,0,1,1.29,0c-1,2.39-1,5.28-3.34,7-9.55,8.77-20.61,8.78-32,5a17,17,0,0,1-12-13.89,30.78,30.78,0,0,0-1.5-5.22c-.43-1.17-.3-3.16-1.9-3.15-1.75,0-1.94,2-2.36,3.36a7.73,7.73,0,0,0-.18,3c.53,5.93-.26,11.42-4.95,15.7C162.69,159.84,162.55,160.73,161.55,161.16Z"/><path class="cls-10" d="M142.74,104.22c-5.88,1.6-11.81,3.06-17.64,4.86-6.53,2-12.26,5.66-17.91,9.79-1.26-14.43-1.87-14.72,12.46-20.8a7.9,7.9,0,0,1,4.55-2.62c5.86.56,11,3.42,16.35,5.42C141.87,101.36,143.26,102.29,142.74,104.22Z"/><path class="cls-11" d="M142.74,104.22c-3.31-4.18-8.74-3.89-13-6.12a36.17,36.17,0,0,0-6-1.94c-1.86,1.43-4.14.06-6.09.9a13.74,13.74,0,0,0-2.9.5c-3.2,1.3-3.39-.53-3-2.83.76-4.36,1.59-8.71,3.88-12.6,4.36-1.2,7.61,1,10.71,3.54a3.94,3.94,0,0,1,.52,1.88c-.29,4.22,1.55,5.22,5.34,3.75,1.51-.59,3.23-.58,4.8-1.09,2.58-.37,5.15-.87,7.74-1.19a3.71,3.71,0,0,1,3,1.15c-1.3,3.56-2.52,7.13-2.25,11C145.61,103.13,145,104.43,142.74,104.22Z"/><path class="cls-12" d="M194.87,100l-1.05-5.86c2.32-1.94,5-1.27,7.58-1,4.1.49,8.13,1.37,12.21,1.88a17,17,0,0,1,2.32.64c1.51.38,3,.79,3.91,2.25,1.67.67,3.38,1.26,5,2,7.79,3.7,9.34,6.57,8.82,15-.17,2.79-1.29,3.18-3.36,2s-3.83-2.52-5.73-3.8c-4.57-11.17-15.27-9.58-24.22-11.59C198.48,101.2,196.33,101.78,194.87,100Z"/><path class="cls-6" d="M184.7,116.15l-1.84,3.15c6.79-2.92,12.75-5.76,17.85-10.16a18.57,18.57,0,0,1,9.4,2.12C194,120,178,126.66,160.24,129.36l12.44-13.23c-.44,1.51-.87,3-1.61,5.59l12.61-6.58C184.72,114.77,185,115.22,184.7,116.15Z"/><path class="cls-13" d="M146.65,194.39c19.08,9.41,37.11,7.82,54.08-5.1,1.71,2.28-.06,4.55,0,6.83-11.89,7.95-25.2,8.88-38.84,7.51-4.14-.42-8.5-.84-12.21-3.26C148.21,198.6,145.47,197.48,146.65,194.39Z"/><path class="cls-14" d="M175.84,46.06a44.34,44.34,0,0,1,23.85,8.18c1.4,1.09,3,1.87,4.44,3,.83,1.48,3.78,1.91,2.26,4.56-2,1.49-4.16.84-6.16.09-9.45-3.55-19-6.7-28.41-10.48-2.18-.88-5-1.54-4.3-5C170.25,45.14,173.05,45.66,175.84,46.06Z"/><path class="cls-15" d="M190.63,99.16c.59,2.78.1,4.2-3.38,4.13-11.56-.22-23.14-.09-34.71-.06-1.84,0-4,.4-3.65-2.46.25-2.29-.31-5.34,3.42-5.48,2.48-.1,5,0,7.44-.05,2.37,2.45,5.71,1.11,8.44,2.14,1.47,1,2.9.46,4.33-.15a15.27,15.27,0,0,1,8.71.87,6,6,0,0,0,4.24.06C187.32,97.86,189.12,97.76,190.63,99.16Z"/><path class="cls-16" d="M137.69,112.17c1.44,2.54-.93,4.54-1,6.86,0,1.78-1.61,3.36-.58,5.56,5.69-3.66,10.44-8.57,16.56-11.45,1-.39,1.22.1,1,1a4,4,0,0,0-2.39,2.77c6.34-1.77,11.85-5.53,18.4-5.75-10.77,4.41-21,9.77-30.11,17.07-1.8,1.45-3.42,3.14-5.16,4.68-.83.73-1.52,2.18-2.78,1.69-1.61-.62-1-2.36-.87-3.53.71-5.25,1.59-10.48,4.63-15C136.24,114.78,136.93,113.46,137.69,112.17Z"/><path class="cls-17" d="M215.87,97l-1.2-.78c-8-3-16.44-5-24.13-9l-7.11-7c8.82.5,16.44,4.95,24.53,7.74,5.26,1.81,11,2.73,15.64,6.16a1.84,1.84,0,0,1,.12,2.76,2.42,2.42,0,0,1-.93.1A17.16,17.16,0,0,0,215.87,97Z"/><path class="cls-18" d="M194.87,100c7.18-.08,14.1,1.52,21,3.16,5.45,1.28,8.84,4.06,8.67,10.06A89.82,89.82,0,0,0,198,104.76C195,104.35,194.17,102.72,194.87,100Z"/><path class="cls-17" d="M139.69,60.27c-.14,3.71,3,3.93,5.32,4.8,7.36,2.82,14.8,5.41,22.2,8.11,1.83.66,3.92,1,4.38,3.44l-8.67.67c-9.26-3.06-18.73-5.59-27.29-10.49-1.31-3.44,1.07-5.06,3.34-6.74Z"/><path class="cls-19" d="M179.71,83.13c4.14,1.5,6.51,4.69,8.75,8.64-9-1-17.36-.43-25.76-.62-1.32-2.69.62-4.17,2.37-5.25C169.54,83.15,174.34,81.44,179.71,83.13Z"/><path class="cls-6" d="M179.71,83.13c-4.71.52-9.46,1-13.64,3.48-1.65,1-3.28,2.27-3.37,4.54-2.43.34-4.86.76-7.31,1-1.06.09-2.5.54-3.13-.75s.41-2.21,1-3.13C158.89,80,171.2,77.65,179.71,83.13Z"/><path class="cls-20" d="M135.61,66.14c7.43,2.74,14.85,5.49,22.3,8.19a11.61,11.61,0,0,1,5,3l-4.81,2a4.47,4.47,0,0,1-2.92.37c-7.55-2.88-15.55-4.63-22.56-8.89a3,3,0,0,1,.28-3.64A2.52,2.52,0,0,1,135.61,66.14Z"/><path class="cls-21" d="M146.65,194.39l3,6c-11.71-3.58-20.16-11.2-22.18-20.82C135.53,183.09,139.31,191.17,146.65,194.39Z"/><path class="cls-22" d="M125.73,86.18a33.8,33.8,0,0,0-10.1-4.05,31.24,31.24,0,0,1,6.9-12.28c3,1.24,6.21,2.2,7.16,5.91a6.54,6.54,0,0,1-.17,2.2c-.32,1.14-.71,2.27-1,3.42-.59,1.55-.42,3.34-1.45,4.76A1,1,0,0,1,125.73,86.18Z"/><path class="cls-23" d="M200.72,196.12c-2.48-2.28.44-4.56,0-6.83,5.12-4.5,9.14-9.94,13-15.74C215.86,181.64,210.83,190.19,200.72,196.12Z"/><path class="cls-24" d="M132.67,70.16l25.44,9.15-4.21,2.93a2.55,2.55,0,0,1-1.89.5c-7.48-2.07-15-4-21.64-8.33C129.86,72.31,130.06,70.58,132.67,70.16Z"/><path class="cls-25" d="M130.63,74.15l23.27,8.09-4.07,4c-6.82.14-12.42-3.83-18.66-5.63-1.12-.32-2.79-.47-2.46-2.42l0-2C129.55,75.68,128.84,73.75,130.63,74.15Z"/><path class="cls-26" d="M223.72,96.92l-.12-2.76-1-6c-1.6-1.49-2.16-3.55-3-5.47a55.3,55.3,0,0,0-3-6.34c-.52-1.79-2.42-3.35-1-5.49a2.31,2.31,0,0,1,2.82.32A53,53,0,0,1,228,93.53c.28,1.44,1.29,3.26.21,4.22C226.88,98.94,225.26,97.2,223.72,96.92Z"/><path class="cls-27" d="M128.71,78.15l21.12,8c-.08,1.65-1.14,2.79-2.1,4l-3,0c-4.75-1.9-9.79-3-14.41-5.24-1.48-.71-3.81-1.08-2.59-3.75C127.73,80,127.59,78.89,128.71,78.15Z"/><path class="cls-28" d="M110,159.09c8.12,2.66,14.47,6.49,16.25,15.74C118.1,172.48,113.25,167,110,159.09Z"/><path class="cls-29" d="M168.53,98.09c-2.92-1-7.28,2.5-8.78-2.85,9.09-.81,18.18-.11,27.27,0,2.72,0,4,1.08,3.61,3.9l-5.82-.08a29.29,29.29,0,0,0-3.38-.08l-9.8-.77C170.57,98.75,169.55,98.28,168.53,98.09Z"/><path class="cls-30" d="M88.65,181a65.43,65.43,0,0,1,18.52-15.88l-14.3,20.11A33.73,33.73,0,0,1,88.65,181Z"/><path class="cls-31" d="M263.08,194a48.16,48.16,0,0,1,6.47,9.36c-8.37,2.59-11.12,1.55-14.06-5.15C257.07,195,259.3,193.1,263.08,194Z"/><path class="cls-32" d="M190.54,87.22c8.52,1.71,16.69,4.34,24.13,9-7,.07-13.79-2.51-20.85-2.06Z"/><path class="cls-33" d="M84.9,199.41c-2.11,5.56-2.11,5.56-13.05,4.5,1.08-3.54,3.25-6.28,5.57-8.93C81.18,194.33,83.84,195.53,84.9,199.41Z"/><path class="cls-34" d="M114.73,118.15c-.14,1.88.69,3.5,1.44,5.54,5.93-5,11.73-10,19.56-11.51-8.37,5.25-16.47,10.81-22.68,19.95C112.39,126.65,112.81,122.32,114.73,118.15Z"/><path class="cls-35" d="M223.42,152.11l3.39-14c2.26-2.49,4.49-2,6.72,0a22,22,0,0,1-1.94,7C229.49,148.17,228.48,152.51,223.42,152.11Z"/><path class="cls-36" d="M130.63,74.15c-.64.67-1.27,1.35-1.9,2-.16-4-5.27-3.1-6.2-6.32,1-2.46,2.91-4.15,4.86-5.81,3.11-1,5,.59,6.35,3.14l-1.07,3A6.11,6.11,0,0,0,130.63,74.15Z"/><path class="cls-37" d="M218.13,119.92H200.92c4.88-2.6,8.54-4.58,12.23-6.48,1.12-.58,2.1-.67,2.63,1C216.37,116.24,217.28,118,218.13,119.92Z"/><path class="cls-38" d="M81.75,189.11c1.87-2.44,3.44-5.12,5.93-7,3.15.18,4.77,1.6,4,5a14.57,14.57,0,0,1-2.95,5.08C85.23,193.87,83.76,193.24,81.75,189.11Z"/><path class="cls-39" d="M142.73,58.22l-3,2.05,0-.15c-1.87-.42-3.76-.82-4.3-3.11a31.88,31.88,0,0,1,12.26-6.84c2.45-1.1,2.72.46,2.77,2.28a4.15,4.15,0,0,1-1.72,2.42C146.74,56,145.32,58.15,142.73,58.22Z"/><path class="cls-40" d="M135.41,57l4.3,3.11c-1.32,2-3.59,3.43-4.1,6l-1.87,1c-2.29-.69-3.81-2.94-6.35-3.14C129.71,61.3,132.11,58.64,135.41,57Z"/><path class="cls-41" d="M263.08,194c-3.08.42-5,3-7.59,4.21l-2.92-5.88c.48-3.6,2.5-4.95,6-4.15C260.73,189.57,261.35,192.19,263.08,194Z"/><path class="cls-42" d="M149.71,53.09c0-1.48-.07-2.85-2-2.92,9-4,18.31-6,28.17-4.11-2.67.79-5.64-.75-8.17,1.08-2.37,2-5.55,1.71-8.18,3-2.52.61-4.73,1.95-7.09,2.95C151.51,53.35,150.61,53.73,149.71,53.09Z"/><path class="cls-43" d="M81.75,189.11c2.16,1.39,3.67,4.33,7,3a27.68,27.68,0,0,1-3.86,7.31A17.72,17.72,0,0,0,77.42,195,21.94,21.94,0,0,1,81.75,189.11Z"/><path class="cls-44" d="M108.85,140.94c1.29,1.45,0,3.84,1.83,5.09,1.93,1,2.8,3.45,5.14,4l3.59,8.74c-5.37-.85-8.86-5.46-11.5-14.68C108.65,143.15,107.62,141.7,108.85,140.94Z"/><path class="cls-45" d="M230.37,123.19c-.23,2.93.9,5.14,4.14,6.49-10.22,1.47-11.76.51-10-5.71C226.47,123.68,228.26,122.25,230.37,123.19Z"/><path class="cls-44" d="M223.42,152.11c3.58-1.33,5.65-4.43,8.17-7-1.7,5.87-4,11.32-10.57,14.57A14,14,0,0,1,223.42,152.11Z"/><path class="cls-46" d="M218.5,71.18l-2.91,0c-1.06.39-1.78-.2-2.48-.86-1.69-3.39-5.59-5.21-6.51-9.15l-3-4a.71.71,0,0,1,1.17-.07A43.37,43.37,0,0,1,218.5,71.18Z"/><path class="cls-47" d="M258.58,188.13a9.73,9.73,0,0,0-6,4.15,13.34,13.34,0,0,1-2.95-5.1c0-3.22,2.22-3.83,4.79-4Z"/><path class="cls-48" d="M246.53,182.17l-4.91-7c.73-2.79,2.49-1.71,4.12-1.1l4.91,5.09C250.63,182,249,182.63,246.53,182.17Z"/><path class="cls-49" d="M245.74,174c-1.42.21-3-.37-4.12,1.1a28.9,28.9,0,0,1-6.5-9.62A31.19,31.19,0,0,1,245.74,174Z"/><path class="cls-50" d="M115.82,150c-2.81.69-3.65,0-5.14-4l2.51-7.11C114.24,143.36,115,146.67,115.82,150Z"/><path class="cls-51" d="M246.53,182.17c1.5-.85,3.35-1.21,4.12-3a11.65,11.65,0,0,1,3.76,4c-1.48,1.48-3.83,1.91-4.79,4A13.85,13.85,0,0,1,246.53,182.17Z"/><path class="cls-52" d="M167.1,116.94c-3.06,3.57-4.9,7.64-10.26,3.72C160.14,119.2,162.73,117.1,167.1,116.94Z"/><path class="cls-53" d="M233.53,138.15c-2.24-.13-4.47-1.08-6.72,0-.9-4.3,2.29-4.15,4.85-4.19C235.15,133.87,233.92,136.28,233.53,138.15Z"/><path class="cls-54" d="M237.71,122.15c-.28,1.83,4.35,3,.85,5.16-2.18,1.37-3.79-.37-4-4.2A4.08,4.08,0,0,1,237.71,122.15Z"/><path class="cls-55" d="M219.46,114.76c2.89,1.44,5.29,1.3,5.69,3.93.08.49-1.06,1.72-1.54,1.67C220.85,120.07,221.23,117.45,219.46,114.76Z"/><path class="cls-56" d="M230.37,123.19c-1.87.85-3.74,1.76-5.85.77a4.8,4.8,0,0,1,6-2.76C232.35,121.71,230.67,122.53,230.37,123.19Z"/><path class="cls-57" d="M91.71,187c-.26-2.53-2.17-3.72-4-5l1-1c2.49.33,4.33,1.31,4.22,4.23Z"/><path class="cls-58" d="M106.56,138.19c-1-1.26-1.23-2.62-.14-3.86.32-.37,1.5-.57,1.74-.32,1.14,1.18.53,2.69.48,4.1A1.46,1.46,0,0,1,106.56,138.19Z"/><path class="cls-50" d="M106.56,138.19l2.08-.08.21,2.83c-.4,1,.11,2.3-.94,3.11Z"/><path class="cls-59" d="M221,147.12l-1.29,0,2.64-6.57C222.47,143.71,222,145.47,221,147.12Z"/><path class="cls-60" d="M215.87,97c2.32-1.5,4.62-1.14,6.92,0-1,.35-2.2-.15-2.95.91Z"/><path class="cls-61" d="M117.64,97.06c1.85-1.51,4-.72,6.09-.9a5.12,5.12,0,0,1-4.08,1.91Z"/><path class="cls-62" d="M204.8,57.13l-1.17.07c-2-.12-3-1.43-3.94-3C202,54.17,203.35,55.72,204.8,57.13Z"/><path class="cls-63" d="M237.71,122.15c-.8,1.16-2,1-3.18,1C234.82,120.25,236.12,120.73,237.71,122.15Z"/><path class="cls-64" d="M118.63,142.25l.79,3.7c-2.37-1-1.64-2.53-1.61-3.8C118.14,141.77,118.41,141.8,118.63,142.25Z"/><path class="cls-65" d="M118.63,142.25a3.75,3.75,0,0,0-.82-.1c-1.17-.75-1.3-1.78-.64-3.5Z"/><path class="cls-66" d="M170.47,271.06A15.92,15.92,0,0,1,155,263.39c-4.3-6.63-1.58-15.2,6-19.42a19,19,0,0,1,18.51-.47c6.63,3.27,9.41,8.88,8.13,16-1.07,6-7.32,11.16-14,11.57C172.69,271.12,171.69,271.06,170.47,271.06Z"/><path class="cls-67" d="M147.09,172a111.6,111.6,0,0,0,25.06,0,70.84,70.84,0,0,0,22.93-6.47,26.46,26.46,0,0,1-20.75,20.48C163.86,187.91,154.36,183.22,147.09,172Z"/><path class="cls-68" d="M161.55,161.16c0-.94-.22-2,1.2-2.24,4.3,4.17,8.6,4.06,12.89,0,1.71,0,1.65,1,1.2,2.23C171.17,168,167.24,168,161.55,161.16Z"/><path class="cls-69" d="M176.84,161.14c-.07-.92.19-2-1.2-2.23-.42-2.55-4.14-2.82-4-5.76-.34-1,.12-1.25,1-1a38.42,38.42,0,0,1,3.62,4.4C177.12,157.88,178.86,159.37,176.84,161.14Z"/><path class="cls-70" d="M172.68,152.15l-1,1c-1-.93-1.37-2-.51-3.17C171.66,150.7,172.17,151.43,172.68,152.15Z"/><path class="cls-71" d="M184.7,116.15l-1-1,3.82-2.93C187.41,114.26,186.19,115.32,184.7,116.15Z"/><path class="cls-72" d="M153.69,114.13l-1-1a3.78,3.78,0,0,1,3.23-1.63C155.94,113.1,154.7,113.53,153.69,114.13Z"/><path class="cls-73" d="M142.73,58.22l5-3.92c17.49,7.23,35.52,13,53.16,19.8,6.63,2.55,13.75,3.94,19.74,8.07.65,2,1.31,4,2,6-25.75-8.28-50.91-18.22-76.38-27.31C144.81,60.36,143.37,59.78,142.73,58.22Z"/><path class="cls-74" d="M127.71,81.15c1.38,3.11,4.7,2.91,7.15,4.18,3.24,1.69,7.51,1.28,9.85,4.81a21.11,21.11,0,0,1-8,1c-3.44.71-6.29-1.05-9.23-2.28a1.72,1.72,0,0,1-.83-2.8C126.9,84.42,126.13,82.54,127.71,81.15Z"/><path class="cls-75" d="M126.69,86.1c2.47,3.43,6.69,3.42,10.06,5.08-2.62.79-5.27,1.48-7.84,2.42s-3.27-.17-3.21-2.5c0-1.64,0-3.28,0-4.92Z"/><path class="cls-76" d="M206.6,61.19c2.63,2.79,6,5,7.15,9-2,1.82-4.08.92-6.06.2-14.77-5.4-29.56-10.73-44.32-16.17-2.12-.78-5.68-.93-4.66-5a17.38,17.38,0,0,1,9-2.08C169,49.93,172,50.06,174.35,51c8.94,3.43,18,6.66,26.94,10A8.13,8.13,0,0,0,206.6,61.19Z"/><path class="cls-77" d="M181.43,99c1.18-1.94,2.3-1.76,3.38.08C183.65,100.63,182.52,100.72,181.43,99Z"/><path class="cls-78" d="M168.53,98.09c1.1-1.55,2.1-.82,3.1.14-.38.86-.74,1.83-1.93,1.67C168.72,99.76,168.71,98.84,168.53,98.09Z"/><path class="cls-79" d="M156.89,97.75a1.26,1.26,0,0,1,1.39,1.09,1.11,1.11,0,0,1-1.1,1.33c-.68,0-1.38-.11-1.4-1A1.31,1.31,0,0,1,156.89,97.75Z"/><path class="cls-80" d="M158.71,49.22c.31,2.56,2.63,2.91,4.35,3.54,15.25,5.61,30.55,11.07,45.82,16.63a12,12,0,0,0,4.87.76l1.84,1,2,5c-2.11,1.88-4.42,1.08-6.58.31q-27.89-10-55.67-20.28c-1.77-.66-3.94-1.28-3.65-4C154,51.14,156.09,49.54,158.71,49.22Z"/><path class="cls-81" d="M151.72,52.22c2.65,3.81,7.24,3.86,11,5.28,16.1,6.16,32.39,11.83,48.59,17.72a15.47,15.47,0,0,0,6.34,1,18.78,18.78,0,0,1,3,6c-8.11-2.75-16.26-5.39-24.31-8.28C182,68.76,167.77,63.5,153.53,58.24c-2.22-.82-4.95-1.06-5.81-4l2-1.2Z"/><path class="cls-5" d="M168.72,246.21a4.62,4.62,0,0,1,1-.19c7.88-.15,13.83,4.19,14,10.2.17,6.22-5.73,10.71-14,10.65C163.94,262.21,163.46,251.89,168.72,246.21Z"/><path class="cls-82" d="M168.72,246.21c-2.87,7-3.39,14,1,20.66-7.08-.26-12.08-4.4-12.23-10.14S161.88,246.74,168.72,246.21Z"/><path class="cls-83" d="M166.72,176.25c7-.95,14.07-1.56,21.74-4.16-2.79,4.94-7.13,4.14-10.63,5.17-1.05,1.06-2.67.68-4,1.57-.44.1.8.5.33,0,2.36-1.31,4.64-.27,6.93.26a18.37,18.37,0,0,1-14.44,3.14,8,8,0,0,1-4.1-4.83C163.76,175.94,165.53,177.17,166.72,176.25Z"/><path class="cls-84" d="M166.72,176.25l-3.42,1.3c1.12,1.58,2.23,3.14,3.33,4.71-4.58.26-7-3.94-10.92-5.22C159.45,175.82,163.09,176.1,166.72,176.25Z"/><path class="cls-85" d="M181.07,179.12h-9.49c2.76-1.27,4.29-2.2,6.25-1.86,1,1.31,2.48.32,3.57.81C182.73,178.68,182.14,179.06,181.07,179.12Z"/></g></g></svg>